<svg width="19" height="16" viewBox="0 0 19 16" fill="none" xmlns="http://www.w3.org/2000/svg">
<path d="M4.83008 15.9263H14.7397C15.853 15.9263 16.5049 15.2891 16.5049 14.2051V7.34229L17.3984 8.08936C17.5742 8.23584 17.772 8.36035 17.999 8.36035C18.4238 8.36035 18.7461 8.09668 18.7461 7.6792C18.7461 7.43018 18.6509 7.23242 18.4604 7.07861L16.5049 5.43066V2.31787C16.5049 1.98828 16.2925 1.77588 15.9629 1.77588H14.9741C14.6519 1.77588 14.4321 1.98828 14.4321 2.31787V3.6875L10.8433 0.669922C10.2134 0.142578 9.42236 0.142578 8.78516 0.669922L1.15332 7.07861C0.962891 7.23975 0.867676 7.45215 0.867676 7.65723C0.867676 8.03809 1.15332 8.36035 1.62207 8.36035C1.84912 8.36035 2.04688 8.23584 2.22266 8.08936L3.06494 7.38623V14.2051C3.06494 15.2891 3.7168 15.9263 4.83008 15.9263ZM11.9126 9.68604C11.9126 9.3418 11.6929 9.12207 11.3486 9.12207H8.26514C7.92822 9.12207 7.69385 9.3418 7.69385 9.68604V14.4907H5.21094C4.74951 14.4907 4.50049 14.2344 4.50049 13.7729V6.17773L9.50293 1.98828C9.70068 1.8125 9.92773 1.8125 10.1255 1.98828L15.0693 6.13379V13.7729C15.0693 14.2344 14.8203 14.4907 14.3589 14.4907H11.9126V9.68604Z" fill="white" fill-opacity="0.6"/>
</svg>
